{"asset":{"generator":"Khronos glTF Blender I/O v1.1.46","version":"2.0"},"scene":0,"scenes":[{"name":"Scene","nodes":[0]}],"nodes":[{"mesh":0,"name":"Shape_IndexedFaceSet.002","rotation":[0,0.7071067094802856,-0.7071068286895752,5.338507236274381e-8],"scale":[2.5299999713897705,2.5299999713897705,2.5299999713897705],"translation":[-8.109999656677246,2.632999897003174,0]}],"materials":[{"doubleSided":true,"emissiveFactor":[0,0,0],"name":"Hydrogen","pbrMetallicRoughness":{"baseColorFactor":[1,1,1,1],"metallicFactor":1,"roughnessFactor":1}},{"doubleSided":true,"emissiveFactor":[0,0,0],"name":"Oxygen","pbrMetallicRoughness":{"baseColorFactor":[1,0,0.0012526200152933598,1],"metallicFactor":1,"roughnessFactor":1}}],"meshes":[{"name":"Shape_IndexedFaceSet.002","primitives":[{"attributes":{"POSITION":0,"NORMAL":1,"TEXCOORD_0":2},"indices":3,"material":0},{"attributes":{"POSITION":4,"NORMAL":5,"TEXCOORD_0":6},"indices":7,"material":1}]}],"accessors":[{"bufferView":0,"componentType":5126,"count":944,"max":[1,1.0000009536743164,1.3703672885894775],"min":[-7.411067008972168,-0.9999999403953552,-1],"type":"VEC3"},{"bufferView":1,"componentType":5126,"count":944,"type":"VEC3"},{"bufferView":2,"componentType":5126,"count":944,"type":"VEC2"},{"bufferView":3,"componentType":5123,"count":2784,"type":"SCALAR"},{"bufferView":4,"componentType":5126,"count":762,"max":[-1.3891785144805908,1.3833999633789062,3.4648218154907227],"min":[-5.021888732910156,-1.383398175239563,0.6980236768722534],"type":"VEC3"},{"bufferView":5,"componentType":5126,"count":762,"type":"VEC3"},{"bufferView":6,"componentType":5126,"count":762,"type":"VEC2"},{"bufferView":7,"componentType":5123,"count":1824,"type":"SCALAR"}],"bufferViews":[{"buffer":0,"byteLength":11328,"byteOffset":0},{"buffer":0,"byteLength":11328,"byteOffset":11328},{"buffer":0,"byteLength":7552,"byteOffset":22656},{"buffer":0,"byteLength":5568,"byteOffset":30208},{"buffer":0,"byteLength":9144,"byteOffset":35776},{"buffer":0,"byteLength":9144,"byteOffset":44920},{"buffer":0,"byteLength":6096,"byteOffset":54064},{"buffer":0,"byteLength":3648,"byteOffset":60160}],"buffers":[{"byteLength":63808,"uri":"data:application/octet-stream;base64,"}]}